<?xml version="1.0" encoding="UTF-8"?><svg xmlns="http://www.w3.org/2000/svg" viewBox="0 0 226.77 112.99"><defs><style>.d{fill:#262420;}</style></defs><g id="a"/><g id="b"><g id="c"><path class="d" d="M19.57,112.99c-2.47,0-4.91-.52-7.21-1.57-5.12-2.33-9.13-7-10.99-12.81-3.42-10.67-.25-23.79,7.71-31.9,10.92-11.13,25.14-10.95,33.55-5.02,1.89,1.33,2.34,3.95,1.01,5.84-1.33,1.89-3.95,2.34-5.84,1.01-7.2-5.08-17.09-1.71-22.73,4.04-5.78,5.89-8.18,15.76-5.71,23.47,1.13,3.51,3.55,6.41,6.48,7.74,2.42,1.1,5.08,1.09,7.67-.02,4.2-1.81,7.19-5.49,8.96-8.26,3.45-5.4,5.7-11.86,7.87-18.12l.39-1.11c.71-2.04,2.86-3.22,4.96-2.69,2.1,.52,3.46,2.55,3.14,4.69-1.17,7.83-.17,14.6,2.56,17.25,.52,.5,2.1,2.04,6.42,1.26,3.59-.64,6.95-2.5,9.72-5.35,1.19-1.23,2.36-2.46,3.51-3.68-1.33-3.2-1.72-6.68-1.89-9.82-.02-.39-.04-.77-.06-1.16-.86-19.15,3.56-38.22,12.79-55.16,3.4-6.24,6.87-12.21,11.96-16.71,4.36-3.86,11.63-7,17.78-3.17,4.09,2.55,6.74,7.67,7.07,13.71,.48,8.86-2.99,17.31-6.05,24.76l-.2,.48c-6.57,16.01-16.46,31.49-30.09,47.05,2.3,.69,5.58,.91,8.21,.2,11.24-3.03,17.64-14.97,23.29-25.49l.72-1.34s.02-.04,.04-.07h0c1.1-2.04,3.64-2.8,5.68-1.7,2.04,1.1,2.8,3.64,1.7,5.68h0l-.02,.05c-6.04,11.25-3.18,19.03,.04,21.3,3.37,2.37,8.79,2.24,13.18-.32,3.91-2.28,7.37-6.29,10.56-12.25,.28-.53,.55-1.05,.81-1.56-.4-.05-.81-.11-1.21-.17-9.23-1.33-15.27-5.1-17.45-10.89-1.56-4.14-.82-8.97,1.98-12.93,2.84-4.01,7.19-6.38,11.67-6.38,.09,0,.18,0,.27,0,5.4,.12,10.58,3.31,13.52,8.34,2.36,4.04,3.24,9.16,2.49,14.43,5.24,.06,10.42-.35,15.42-1.24-.25-2.23-.25-4.52,.03-6.82,1.46-11.96,11.09-22.33,22.91-24.68,5.19-1.03,10.5,.13,14.22,3.1,3.17,2.53,4.98,6.24,5.09,10.43,.23,8.64-8.08,14.82-10.63,16.51-6.48,4.29-13.86,6.08-21.06,7.72,1.27,2.41,3.02,4.48,5.15,5.98,7.45,5.25,17.99,1.78,24.62-3.66,2.19-1.8,4.03-3.86,5.45-6.11,1.24-1.96,3.83-2.54,5.78-1.3,1.96,1.24,2.54,3.83,1.3,5.78-1.9,3.01-4.33,5.74-7.22,8.1-9.31,7.64-23.67,11.85-34.77,4.03-3.86-2.72-6.85-6.56-8.74-10.97-6.45,1.2-13.19,1.68-19.95,1.44-.64,1.52-1.4,3.11-2.3,4.78-3.95,7.38-8.44,12.46-13.74,15.54-7.24,4.22-16.17,4.19-22.22-.07-3.32-2.33-5.51-5.65-6.5-9.78-4.6,5.73-10.31,10.53-17.93,12.59-5.01,1.35-11.73,.88-16.31-1.78-.95,1.01-1.91,2.02-2.89,3.02-4,4.12-8.93,6.81-14.26,7.76-7.08,1.27-11.38-1.2-13.75-3.5-1.63-1.59-2.82-3.52-3.66-5.62-.72,1.39-1.5,2.76-2.36,4.09-3.44,5.38-7.84,9.34-12.71,11.44-2.36,1.02-4.82,1.53-7.25,1.53ZM105.38,8.37c-2.16,0-4.62,1.61-5.98,2.81-4.07,3.61-7.13,8.89-10.16,14.45-8.38,15.37-12.56,33.4-11.78,50.77,.02,.36,.03,.71,.05,1.06,.05,.93,.12,1.87,.24,2.79,12.13-14.19,21-28.28,26.94-42.75l.2-.48c2.86-6.96,5.81-14.15,5.43-21.12-.13-2.44-1.03-5.75-3.12-7.05-.55-.34-1.17-.49-1.82-.49Zm36.18,41.89c-1.74,0-3.58,1.08-4.83,2.84-1.19,1.68-1.55,3.6-.98,5.13,1.43,3.81,8.03,5.15,10.8,5.55,.96,.14,1.92,.26,2.88,.37,.03-.17,.06-.34,.08-.51,.53-3.47,.03-6.73-1.4-9.18-1.44-2.46-4.03-4.14-6.46-4.19-.03,0-.06,0-.09,0Zm58.36-10.32c-.69,0-1.4,.07-2.1,.21-8.23,1.63-15.2,9.14-16.22,17.47-.16,1.33-.19,2.67-.09,3.99,6.6-1.5,13.38-3.1,18.74-6.64,3.48-2.3,6.96-6.07,6.87-9.29-.05-1.75-.68-3.09-1.94-4.1-1.33-1.06-3.23-1.64-5.25-1.64Z"/></g></g></svg>