<svg width="347" height="195" viewBox="0 0 347 195" fill="none" xmlns="http://www.w3.org/2000/svg">
<g clip-path="url(#clip0_144_3372)">
<rect width="347" height="195" fill="white"/>
<path d="M269.21 103.517C297.2 83.3058 307.409 49.6353 292.012 28.3115C276.614 6.98779 241.442 6.08567 213.452 26.2966C185.461 46.5075 175.253 80.1781 190.65 101.502C206.048 122.826 241.22 123.728 269.21 103.517Z" fill="#FF2D55" fill-opacity="0.15"/>
<path d="M291.528 28.1786C285.357 19.9248 276.256 14.3519 266.098 12.6076C273.604 15.1612 280.144 19.9574 284.835 26.3479C300.233 47.6714 290.024 81.3415 262.034 101.553C244.954 113.886 225.208 118.342 208.904 115.109C226.259 121.283 249.231 117.46 268.726 103.383C296.717 83.1723 306.926 49.5018 291.528 28.1786Z" fill="white"/>
<path d="M297.596 32.187C296.796 31.0788 295.927 29.9865 295.008 28.9392C294.943 28.8827 294.875 28.8305 294.803 28.7828C294.494 28.5079 294.114 28.3249 293.707 28.2544C293.288 28.1851 292.858 28.2517 292.48 28.4445C292.4 28.469 292.322 28.4984 292.246 28.5326C292.195 28.5644 292.168 28.6162 292.12 28.6514C292.073 28.6866 292.015 28.6981 291.969 28.7381C291.914 28.8021 291.862 28.8696 291.815 28.9401C291.537 29.2521 291.353 29.6366 291.284 30.0491C291.266 30.1832 291.262 30.3188 291.27 30.4538C291.274 30.7342 291.343 31.0098 291.472 31.2586C291.497 31.3409 291.527 31.4216 291.562 31.5001C304.417 52.0627 294.046 82.9327 267.953 101.776C240.966 121.259 207.072 120.57 192.398 100.245C192.299 100.131 192.188 100.028 192.066 99.9387C192.033 99.9071 192.002 99.8765 191.967 99.847C191.792 99.7086 191.596 99.5991 191.386 99.5227C191.332 99.5019 191.281 99.4796 191.224 99.4631C190.784 99.3298 190.31 99.3547 189.886 99.5334C189.807 99.5504 189.728 99.5722 189.652 99.5986C189.602 99.6238 189.572 99.6696 189.525 99.698C189.483 99.7246 189.433 99.7288 189.392 99.7587C189.339 99.8099 189.289 99.864 189.242 99.9208C189.101 100.038 188.976 100.173 188.871 100.323C188.832 100.383 188.797 100.446 188.766 100.511C188.661 100.699 188.587 100.901 188.544 101.112C188.536 101.155 188.534 101.195 188.528 101.238C188.496 101.472 188.504 101.71 188.551 101.941C188.558 101.978 188.571 102.012 188.581 102.049C188.605 102.201 188.646 102.349 188.703 102.491C189.724 104.508 190.902 106.44 192.225 108.272C198.444 116.721 207.392 122.76 217.553 125.368C235.393 130.248 257.254 126.228 275.718 112.896C304.769 91.9198 314.583 55.7118 297.596 32.187Z" fill="#FF2D55" fill-opacity="0.25"/>
<path d="M293.385 30.3542C294.249 31.3365 295.07 32.3661 295.848 33.443C312.167 56.043 302.59 90.8322 274.457 111.146C246.323 131.461 210.287 129.608 193.969 107.008C192.711 105.267 191.593 103.431 190.622 101.516" stroke="#FF2D55" stroke-width="4.30631" stroke-miterlimit="10"/>
<path d="M269.21 103.517C297.2 83.3058 307.409 49.6353 292.012 28.3115C276.614 6.98779 241.442 6.08567 213.452 26.2966C185.461 46.5075 175.253 80.1781 190.65 101.502C206.048 122.826 241.22 123.728 269.21 103.517Z" stroke="#FF2D55" stroke-width="4.30631" stroke-miterlimit="10"/>
<path d="M269.21 103.517L274.456 111.147" stroke="#FF2D55" stroke-width="4.30631" stroke-miterlimit="10"/>
<path d="M259.9 109.331L264.148 117.441" stroke="#FF2D55" stroke-width="4.30631" stroke-miterlimit="10"/>
<path d="M250.573 113.575L253.624 121.825" stroke="#FF2D55" stroke-width="4.30631" stroke-miterlimit="10"/>
<path d="M240.715 116.855L242.704 124.865" stroke="#FF2D55" stroke-width="4.30631" stroke-miterlimit="10"/>
<path d="M276.864 97.2616L282.739 104.258" stroke="#FF2D55" stroke-width="4.30631" stroke-miterlimit="10"/>
<path d="M39.7646 114.531C52.2106 146.734 82.1882 165.153 106.721 155.671C131.254 146.189 141.053 112.397 128.607 80.1942C116.161 47.9913 86.1832 29.5722 61.6501 39.054C37.117 48.5358 27.3185 82.3279 39.7646 114.531Z" fill="#FF2D55" fill-opacity="0.15"/>
<path d="M106.973 155.237C116.522 151.362 124.223 143.973 128.487 134.591C124.113 141.202 117.814 146.311 110.442 149.228C85.909 158.709 55.9318 140.291 43.4854 108.087C35.8908 88.4372 36.5916 68.2059 43.8562 53.256C33.4803 68.4764 31.3476 91.6667 40.0164 114.096C52.4624 146.3 82.44 164.719 106.973 155.237Z" fill="white"/>
<path d="M101.555 160.089C102.83 159.597 104.107 159.033 105.354 158.409C105.425 158.361 105.493 158.308 105.557 158.251C105.901 158.022 106.175 157.701 106.346 157.325C106.519 156.938 106.564 156.505 106.474 156.09C106.47 156.007 106.462 155.923 106.448 155.841C106.43 155.784 106.387 155.744 106.365 155.689C106.343 155.634 106.346 155.576 106.319 155.522C106.271 155.452 106.219 155.385 106.163 155.321C105.932 154.973 105.607 154.697 105.225 154.526C105.1 154.475 104.97 154.436 104.837 154.41C104.565 154.342 104.281 154.339 104.007 154.401C103.921 154.404 103.836 154.413 103.751 154.427C80.5992 161.643 53.3719 143.777 41.7675 113.756C29.7709 82.708 39.0384 50.0989 62.4216 41.0633C62.557 40.9964 62.6847 40.9149 62.8024 40.8202C62.8415 40.7956 62.8788 40.7741 62.9163 40.7475C63.0946 40.6133 63.2503 40.4513 63.3774 40.2679C63.4113 40.2203 63.4459 40.1768 63.4762 40.126C63.7169 39.7338 63.8129 39.2698 63.7477 38.8144C63.7514 38.7331 63.7502 38.6518 63.7442 38.5707C63.7325 38.5159 63.6956 38.476 63.6801 38.4233C63.6652 38.3754 63.6737 38.3263 63.6553 38.2789C63.6191 38.2147 63.5795 38.1526 63.5365 38.0928C63.4592 37.9266 63.3601 37.7715 63.2419 37.6315C63.1929 37.5791 63.1412 37.5293 63.0869 37.4823C62.9315 37.3338 62.7543 37.2101 62.5613 37.1155C62.5221 37.0971 62.4833 37.0844 62.4431 37.0682C62.2252 36.9774 61.9935 36.9245 61.7578 36.9117C61.72 36.9095 61.6836 36.9131 61.6458 36.9131C61.4931 36.898 61.3391 36.9 61.1868 36.9192C58.9776 37.3951 56.809 38.0436 54.7012 38.8587C44.9513 42.7304 36.8389 49.8524 31.7375 59.019C22.4897 75.0367 20.8307 97.2024 29.0402 118.445C41.9575 151.869 74.4899 170.549 101.555 160.089Z" fill="#FF2D55" fill-opacity="0.25"/>
<path d="M104.397 156.481C103.227 157.067 102.023 157.6 100.784 158.08C74.7823 168.129 43.5625 150.037 31.0528 117.669C18.5431 85.3015 29.4803 50.9157 55.482 40.8665C57.4844 40.0922 59.5443 39.4759 61.6429 39.0234" stroke="#FF2D55" stroke-width="4.30631" stroke-miterlimit="10"/>
<path d="M39.7646 114.531C52.2106 146.734 82.1882 165.153 106.721 155.671C131.254 146.189 141.053 112.397 128.607 80.1942C116.161 47.9913 86.1832 29.5722 61.6501 39.054C37.117 48.5358 27.3185 82.3279 39.7646 114.531Z" stroke="#FF2D55" stroke-width="4.30631" stroke-miterlimit="10"/>
<path d="M39.7642 114.531L31.0528 117.669" stroke="#FF2D55" stroke-width="4.30631" stroke-miterlimit="10"/>
<path d="M36.5024 104.051L27.5805 106.101" stroke="#FF2D55" stroke-width="4.30631" stroke-miterlimit="10"/>
<path d="M34.7651 93.9512L26.0104 94.8085" stroke="#FF2D55" stroke-width="4.30631" stroke-miterlimit="10"/>
<path d="M34.0938 83.5828L25.8413 83.4744" stroke="#FF2D55" stroke-width="4.30631" stroke-miterlimit="10"/>
<path d="M43.8721 123.522L35.6143 127.428" stroke="#FF2D55" stroke-width="4.30631" stroke-miterlimit="10"/>
<path d="M186.325 234.615C154.894 220.854 137.913 190.287 148.397 166.342C158.881 142.397 192.86 134.142 224.29 147.904C255.721 161.665 272.701 192.232 262.217 216.177C251.733 240.122 217.755 248.377 186.325 234.615Z" fill="#FF2D55" fill-opacity="0.15"/>
<path d="M148.84 166.112C153.104 156.8 160.776 149.476 170.277 145.651C163.522 149.706 158.175 155.738 154.958 162.93C144.474 186.874 161.454 217.441 192.885 231.203C212.064 239.6 232.182 239.786 247.342 233.225C231.777 242.864 208.659 243.97 186.768 234.385C155.337 220.623 138.356 190.056 148.84 166.112Z" fill="white"/>
<path d="M143.786 171.279C144.331 170.034 144.947 168.791 145.62 167.58C145.671 167.512 145.726 167.447 145.786 167.386C146.028 167.054 146.359 166.796 146.74 166.642C147.132 166.487 147.564 166.462 147.971 166.57C148.054 166.577 148.136 166.589 148.218 166.606C148.274 166.626 148.311 166.671 148.364 166.695C148.418 166.719 148.476 166.718 148.529 166.748C148.596 166.798 148.661 166.853 148.721 166.912C149.057 167.156 149.317 167.491 149.47 167.877C149.515 168.004 149.548 168.135 149.568 168.268C149.624 168.541 149.614 168.823 149.541 169.092C149.534 169.177 149.522 169.262 149.504 169.345C141.33 192.017 157.882 219.829 187.182 232.66C217.486 245.925 250.266 238.145 260.257 215.323C260.329 215.191 260.416 215.068 260.515 214.955C260.541 214.918 260.564 214.882 260.592 214.846C260.733 214.674 260.901 214.527 261.089 214.409C261.137 214.377 261.182 214.345 261.234 214.317C261.634 214.095 262.098 214.02 262.548 214.104C262.629 214.104 262.709 214.109 262.79 214.118C262.843 214.132 262.881 214.171 262.933 214.189C262.98 214.205 263.029 214.199 263.075 214.219C263.138 214.258 263.198 214.3 263.255 214.345C263.417 214.429 263.566 214.535 263.7 214.658C263.75 214.709 263.797 214.763 263.842 214.819C263.982 214.979 264.097 215.161 264.183 215.356C264.199 215.396 264.21 215.435 264.225 215.476C264.305 215.696 264.348 215.928 264.35 216.163C264.351 216.201 264.346 216.237 264.344 216.274C264.352 216.426 264.344 216.579 264.318 216.73C263.749 218.902 263.011 221.027 262.109 223.084C257.84 232.596 250.415 240.34 241.091 245.005C224.785 253.489 202.705 254.169 181.972 245.092C149.35 230.81 132.221 197.695 143.786 171.279Z" fill="#FF2D55" fill-opacity="0.25"/>
<path d="M147.493 168.615C146.859 169.75 146.278 170.923 145.747 172.132C134.636 197.51 151.238 229.296 182.829 243.128C214.421 256.96 249.038 247.6 260.15 222.222C261.006 220.267 261.707 218.249 262.248 216.185" stroke="#FF2D55" stroke-width="4.30631" stroke-miterlimit="10"/>
<path d="M186.325 234.615C154.894 220.854 137.913 190.287 148.397 166.342C158.881 142.397 192.86 134.142 224.29 147.904C255.721 161.665 272.701 192.232 262.217 216.177C251.733 240.122 217.755 248.377 186.325 234.615Z" stroke="#FF2D55" stroke-width="4.30631" stroke-miterlimit="10"/>
</g>
<defs>
<clipPath id="clip0_144_3372">
<rect width="347" height="195" fill="white"/>
</clipPath>
</defs>
</svg>
