<?xml version="1.0" encoding="UTF-8"?><svg xmlns="http://www.w3.org/2000/svg" viewBox="0 0 667.49 332.58"><defs><style>.d{fill:#ed2857;}</style></defs><g id="a"/><g id="b"><g id="c"><path class="d" d="M57.61,332.58c-7.26,0-14.46-1.54-21.23-4.62-15.08-6.86-26.87-20.6-32.36-37.71-10.07-31.4-.74-70.02,22.69-93.9,32.14-32.76,74.01-32.23,98.75-14.78,5.57,3.93,6.9,11.63,2.97,17.19-3.93,5.57-11.63,6.9-17.19,2.97-21.21-14.96-50.3-5.03-66.91,11.9-17.02,17.35-24.09,46.4-16.81,69.08,3.32,10.34,10.45,18.87,19.08,22.79,7.14,3.24,14.95,3.22,22.59-.07,12.37-5.33,21.18-16.16,26.39-24.3,10.16-15.88,16.77-34.92,23.17-53.32l1.13-3.26c2.09-6.02,8.42-9.46,14.61-7.92,6.18,1.53,10.19,7.5,9.25,13.8-3.45,23.05-.49,42.99,7.54,50.79,1.53,1.48,6.17,6,18.9,3.71,10.56-1.9,20.46-7.34,28.62-15.75,3.51-3.62,6.96-7.24,10.33-10.85-3.91-9.43-5.05-19.66-5.58-28.91-.07-1.13-.12-2.28-.17-3.43-2.53-56.36,10.49-112.5,37.66-162.35,10.01-18.35,20.23-35.93,35.2-49.19,12.82-11.35,34.23-20.59,52.34-9.32,12.05,7.49,19.83,22.58,20.8,40.35,1.43,26.07-8.79,50.94-17.8,72.89l-.58,1.42c-19.33,47.11-48.45,92.68-88.56,138.5,6.77,2.03,16.42,2.69,24.16,.6,33.08-8.93,51.93-44.05,68.56-75.03l2.12-3.95c.04-.06,.07-.13,.11-.19h0c3.23-6,10.71-8.24,16.71-5.01,6,3.23,8.24,10.71,5.01,16.71,0,.01-.01,.03-.02,.04l-.06,.12c-17.77,33.1-9.36,56.01,.13,62.68,9.91,6.98,25.87,6.59,38.8-.94,11.52-6.7,21.69-18.5,31.1-36.07,.84-1.57,1.63-3.1,2.37-4.6-1.18-.16-2.37-.32-3.55-.49-27.18-3.92-44.93-15-51.35-32.06-4.59-12.19-2.41-26.41,5.83-38.05,8.36-11.81,21.15-18.79,34.35-18.79,.27,0,.53,0,.8,0,15.89,.34,31.13,9.75,39.78,24.56,6.95,11.9,9.54,26.96,7.32,42.48,15.42,.18,30.67-1.04,45.38-3.65-.74-6.58-.74-13.31,.09-20.06,4.29-35.19,32.65-65.74,67.43-72.63,15.27-3.02,30.9,.39,41.85,9.14,9.33,7.46,14.65,18.35,14.99,30.69,.69,25.44-23.78,43.63-31.29,48.59-19.08,12.62-40.81,17.9-61.98,22.72,3.75,7.09,8.9,13.2,15.16,17.61,21.94,15.46,52.95,5.25,72.47-10.77,6.46-5.3,11.86-11.35,16.05-17.98,3.65-5.76,11.26-7.47,17.02-3.83,5.76,3.64,7.47,11.27,3.83,17.02-5.61,8.86-12.75,16.88-21.25,23.86-27.4,22.49-69.67,34.88-102.33,11.87-11.35-7.99-20.15-19.3-25.73-32.3-18.99,3.53-38.81,4.95-58.73,4.23-1.88,4.48-4.12,9.15-6.76,14.06-11.63,21.71-24.86,36.68-40.43,45.74-21.32,12.41-47.6,12.32-65.4-.2-9.77-6.87-16.23-16.65-19.14-28.78-13.53,16.87-30.36,31-52.78,37.05-14.73,3.98-34.54,2.59-48.02-5.24-2.79,2.96-5.62,5.93-8.51,8.9-11.78,12.13-26.29,20.04-41.96,22.85-20.83,3.74-33.5-3.54-40.46-10.3-4.81-4.67-8.29-10.36-10.78-16.53-2.13,4.09-4.43,8.11-6.94,12.03-10.14,15.85-23.07,27.49-37.41,33.66-6.95,3-14.18,4.49-21.34,4.49ZM310.18,24.64c-6.34,0-13.59,4.74-17.6,8.28-11.98,10.61-20.98,26.17-29.89,42.52-24.66,45.24-36.97,98.31-34.68,149.44,.05,1.05,.1,2.09,.16,3.13,.16,2.75,.36,5.52,.69,8.22,35.72-41.78,61.81-83.23,79.29-125.82l.58-1.42c8.41-20.48,17.11-41.66,15.99-62.17-.39-7.18-3.03-16.92-9.19-20.75-1.63-1.01-3.45-1.44-5.35-1.44Zm106.5,123.29c-5.12,0-10.55,3.19-14.22,8.37-3.5,4.94-4.58,10.59-2.88,15.1,4.22,11.2,23.63,15.15,31.78,16.32,2.82,.41,5.64,.77,8.47,1.08,.09-.5,.17-1,.25-1.5,1.56-10.21,.09-19.81-4.13-27.02-4.22-7.23-11.86-12.19-19.01-12.34-.09,0-.18,0-.26,0Zm171.78-30.37c-2.04,0-4.12,.2-6.19,.61-24.22,4.8-44.74,26.91-47.74,51.42-.48,3.93-.56,7.87-.27,11.76,19.43-4.42,39.38-9.12,55.15-19.54,10.26-6.78,20.49-17.86,20.23-27.34-.14-5.16-2.01-9.11-5.72-12.07-3.91-3.13-9.51-4.82-15.45-4.82Z"/></g></g></svg>