<?xml version="1.0" encoding="UTF-8"?><svg xmlns="http://www.w3.org/2000/svg" viewBox="0 0 737.44 50.83"><defs><style>.d{fill:#181818;}</style></defs><g id="a"/><g id="b"><g id="c"><g><path class="d" d="M0,32.27v-11.13H20.02v10.22c0,3.29,1.54,5.11,4.2,5.11s4.27-1.68,4.27-5.11V.14h20.09V32.27c0,11.34-8.96,18.55-24.85,18.55S0,43.96,0,32.27Z"/><path class="d" d="M57.26,41.58c-1.96-2.87-3.01-6.3-3.01-10.29s1.05-7.42,3.01-10.29c3.92-5.67,11.69-8.89,21.98-8.89s18.06,3.22,21.91,8.89c1.96,2.87,3.08,6.37,3.08,10.29s-1.12,7.42-3.08,10.29c-3.85,5.67-11.69,8.89-21.91,8.89s-18.06-3.22-21.98-8.89Zm17.15-6.02c1.05,1.54,2.73,2.38,4.83,2.38s3.71-.84,4.76-2.38c.77-1.12,1.19-2.52,1.19-4.27s-.42-3.15-1.19-4.27c-1.05-1.54-2.66-2.38-4.76-2.38s-3.78,.84-4.83,2.38c-.77,1.12-1.12,2.52-1.12,4.27s.35,3.15,1.12,4.27Z"/><path class="d" d="M109.76,0h19.25V9.87h-19.25V0Zm.14,13.44h18.9V49.15h-18.9V13.44Z"/><path class="d" d="M137.06,13.44h18.9l-3.57,9.24h1.75c2.52-6.93,6.93-10.57,14.49-10.57,9.87,0,14.91,4.83,14.91,14.14v22.89h-18.9V29.75c0-2.8-1.26-4.41-3.99-4.41-3.01,0-4.69,2.1-4.69,5.88v17.92h-18.9V13.44Z"/><path class="d" d="M210.63,35.7v-11.06h-6.44V13.44h6.44v-4.13l18.9-6.23V13.44h24.08v11.2h-24.08v10.57c0,2.03,1.05,3.01,2.66,3.01s2.8-1.05,2.8-3.01v-5.04h18.62v5.53c0,9.03-8.68,14.77-21.84,14.77s-21.14-5.39-21.14-14.77Z"/><path class="d" d="M259.83,.14h18.9V13.44l-3.57,9.24h1.75c2.52-6.93,6.93-10.57,14.49-10.57,9.87,0,14.91,4.83,14.91,14.14v22.89h-18.9V29.75c0-2.8-1.26-4.41-3.99-4.41-3.01,0-4.69,2.1-4.69,5.88v17.92h-18.9V.14Z"/><path class="d" d="M314.43,42.14c-2.03-2.87-3.08-6.51-3.08-10.85s1.12-7.91,3.08-10.71c3.85-5.53,11.13-8.47,20.93-8.47,14.63,0,23.24,7.07,23.24,19.88v2.87h-29.4c.21,1.33,.56,2.45,1.12,3.29,1.05,1.4,2.59,2.03,4.97,2.03,2.24,0,3.92-.84,4.76-2.45h18.76c-1.54,7.84-10.43,12.74-23.31,12.74-9.66,0-17.22-2.87-21.07-8.33Zm26.67-14.98c-.07-3.15-2.03-4.97-5.67-4.97-2.52,0-4.13,.63-5.18,2.17-.49,.77-.84,1.68-1.05,2.8h11.9Z"/><path class="d" d="M379.04,13.44h18.27l2.94,22.47,.14,5.46h1.68l.14-5.46,2.66-22.47h23.17l2.31,22.47,.14,5.46h1.75l.21-5.46,2.87-22.47h18.34l-7.14,35.7h-27.09l-2.03-21.98-.21-5.88h-1.68l-.28,5.88-1.96,21.98h-27.16l-7.07-35.7Z"/><path class="d" d="M460.59,47.19c-1.68-1.75-2.66-4.06-2.66-6.93s.91-5.18,2.73-7c2.38-2.38,6.16-3.92,11.27-4.41l12.81-1.05v-.98c0-2.66-1.68-3.78-4.2-3.78-4.2,0-4.34,3.15-4.41,3.64h-18.9c.07-1.82,.63-14.56,23.66-14.56,15.05,0,22.75,4.69,22.75,15.33v21.7h-17.92l3.29-9.17h-1.75c-2.52,7.35-7.14,10.5-16.03,10.5-4.9,0-8.47-1.19-10.64-3.29Zm17.29-6.86c.42,.49,1.26,.7,2.17,.7,4.62,0,4.69-4.48,4.69-5.67v-.42l-3.85,.42c-1.33,.21-2.24,.63-2.94,1.26-.49,.49-.7,1.19-.7,1.96,0,.7,.21,1.33,.63,1.75Z"/><path class="d" d="M511.06,0h19.25V9.87h-19.25V0Zm.14,13.44h18.9V49.15h-18.9V13.44Z"/><path class="d" d="M541.37,35.7v-11.06h-6.44V13.44h6.44v-4.13l18.9-6.23V13.44h24.08v11.2h-24.08v10.57c0,2.03,1.05,3.01,2.66,3.01s2.8-1.05,2.8-3.01v-5.04h18.62v5.53c0,9.03-8.68,14.77-21.84,14.77s-21.14-5.39-21.14-14.77Z"/><path class="d" d="M590.58,.14h18.9V49.15h-18.9V.14Z"/><path class="d" d="M617.6,0h19.25V9.87h-19.25V0Zm.14,13.44h18.9V49.15h-18.9V13.44Z"/><path class="d" d="M642.59,38.15v-.14h17.15v.14c0,1.54,1.68,2.45,4.2,2.45,1.54,0,2.66-.21,3.15-.7,.28-.28,.42-.63,.42-1.12,0-1.05-.98-1.75-3.43-2.1l-10.01-1.75c-7.28-1.33-10.92-4.9-10.92-10.85,0-2.59,.91-4.9,2.73-6.79,3.36-3.29,9.87-5.18,18.69-5.18,13.3,0,20.93,4.55,20.93,12.53v.21h-17.29v-.21c0-1.75-1.89-2.73-4.34-2.73-1.54,0-2.66,.21-3.15,.7-.28,.28-.42,.63-.42,1.05,0,.98,.77,1.47,3.85,2.03l7.98,1.26c8.96,1.75,12.88,4.9,12.88,11.27,0,2.87-.98,5.18-2.8,7.07-3.29,3.29-9.73,5.18-18.41,5.18-13.58,0-21.21-4.41-21.21-12.32Z"/><path class="d" d="M694.46,35.7v-11.06h-6.44V13.44h6.44v-4.13l18.9-6.23V13.44h24.08v11.2h-24.08v10.57c0,2.03,1.05,3.01,2.66,3.01s2.8-1.05,2.8-3.01v-5.04h18.62v5.53c0,9.03-8.68,14.77-21.84,14.77s-21.14-5.39-21.14-14.77Z"/></g></g></g></svg>